<svg xmlns="http://www.w3.org/2000/svg" xmlns:xlink="http://www.w3.org/1999/xlink" fill="none" version="1.1" width="16" height="16" viewBox="0 0 16 16"><defs><clipPath id="master_svg0_1_894"><rect x="0" y="0" width="16" height="16" rx="0"/></clipPath></defs><g clip-path="url(#master_svg0_1_894)"><g transform="matrix(1,0,0,-1,0,32.68749237060547)"><g><path d="M10.863855859375,31.562546185302736Q11.050555859375,32.031246185302734,11.455255859375,32.218746185302734Q11.891055859375,32.406246185302734,12.357955859375,32.312546185302736L15.097255859375,31.562546185302736Q15.937755859375,31.249946185302733,15.999955859375,30.343746185302734Q15.968855859375,26.437546185302736,14.101155859375,23.281246185302734Q12.233455859375,20.124996185302734,9.089495859375,18.249996185302734Q5.945525859375,16.374996185302734,2.054475859375,16.343746185302734Q1.151745859375,16.406246185302734,0.840465859375,17.249996185302734L0.093384259375,19.999996185302734Q-9.406250000010274e-7,20.468746185302734,0.186769859375,20.906246185302734Q0.373539859375,21.312496185302734,0.840465859375,21.499996185302734L3.828795859375,22.749996185302734Q4.669255859375,23.031246185302734,5.260695859375,22.374996185302734L6.505835859375,20.843746185302734Q8.155635859375,21.624996185302734,9.463035859375,22.906246185302734Q10.739255859375,24.218746185302734,11.517555859375,25.874996185302734L9.992215859375,27.124946185302733Q9.338515859375,27.718746185302734,9.618675859375,28.562546185302736L10.863855859375,31.562546185302736Z" fill="#1B9AF5" fill-opacity="1" style="mix-blend-mode:passthrough"/></g></g></g></svg>