<svg xmlns="http://www.w3.org/2000/svg" xmlns:xlink="http://www.w3.org/1999/xlink" fill="none" version="1.1" width="37.5" height="30" viewBox="0 0 37.5 30"><defs><clipPath id="master_svg0_1_909"><rect x="0" y="0" width="37.5" height="30" rx="0"/></clipPath></defs><g clip-path="url(#master_svg0_1_909)"><g transform="matrix(1,0,0,-1,0,61.2890625)"><g><path d="M0,57.83203125Q0.0585938,59.00393125,0.820312,59.82423125Q1.64062,60.58593125,2.8125,60.64453125L21.5625,60.64453125Q22.7344,60.58593125,23.5547,59.82423125Q24.3164,59.00393125,24.375,57.83203125L24.375,55.01953125L27.3633,55.01953125Q28.8867,55.01953125,30,53.906231250000005L34.5117,49.39453125Q35.625,48.281231250000005,35.625,46.757831249999995L35.625,45.64453125L35.625,43.76953125L35.625,40.01953125Q36.4453,40.01953125,36.9727,39.49219125Q37.5,38.96484125,37.5,38.14453125Q37.5,37.32422125,36.9727,36.79687125Q36.4453,36.26953125,35.625,36.26953125L33.75,36.26953125Q33.6914,33.86719125,32.1094,32.28515125Q30.5273,30.70312505,28.125,30.64453125Q25.7227,30.70312505,24.1406,32.28515125Q22.5586,33.86719125,22.5,36.26953125L15,36.26953125Q14.9414,33.86719125,13.3594,32.28515125Q11.7773,30.70312505,9.375,30.64453125Q6.97266,30.70312505,5.39062,32.28515125Q3.80859,33.86719125,3.75,36.26953125L2.8125,36.26953125Q1.64062,36.32812125,0.820312,37.08984125Q0.0585938,37.91015125,0,39.08203125L0,57.83203125ZM24.375,45.64453125L31.875,45.64453125L24.375,45.64453125L31.875,45.64453125L31.875,46.757831249999995L27.3633,51.26953125L24.375,51.26953125L24.375,45.64453125ZM9.375,33.45703125Q10.957,33.51562125,11.8359,34.86328125Q12.5391,36.26953125,11.8359,37.67578125Q10.957,39.02344125,9.375,39.08203125Q7.79297,39.02344125,6.91406,37.67578125Q6.21094,36.26953125,6.91406,34.86328125Q7.79297,33.51562125,9.375,33.45703125ZM30.9375,36.26953125Q30.8789,37.85156125,29.5312,38.73047125Q28.125,39.43359125,26.7188,38.73047125Q25.3711,37.85156125,25.3125,36.26953125Q25.3711,34.68750125,26.7188,33.80859125Q28.125,33.10547125,29.5312,33.80859125Q30.8789,34.68750125,30.9375,36.26953125ZM10.3125,55.95703125L10.3125,53.14453125L10.3125,55.95703125L10.3125,53.14453125L7.5,53.14453125Q6.62109,53.08593125,6.5625,52.20703125L6.5625,50.33203125Q6.62109,49.45313125,7.5,49.39453125L10.3125,49.39453125L10.3125,46.58203125Q10.3711,45.70313125,11.25,45.64453125L13.125,45.64453125Q14.0039,45.70313125,14.0625,46.58203125L14.0625,49.39453125L16.875,49.39453125Q17.7539,49.45313125,17.8125,50.33203125L17.8125,52.20703125Q17.7539,53.08593125,16.875,53.14453125L14.0625,53.14453125L14.0625,55.95703125Q14.0039,56.83593125,13.125,56.89453125L11.25,56.89453125Q10.3711,56.83593125,10.3125,55.95703125Z" fill="#1B9AF5" fill-opacity="1" style="mix-blend-mode:passthrough"/></g></g></g></svg>