<svg xmlns="http://www.w3.org/2000/svg" xmlns:xlink="http://www.w3.org/1999/xlink" fill="none" version="1.1" width="37.5" height="30" viewBox="0 0 37.5 30"><defs><clipPath id="master_svg0_1_904"><rect x="0" y="0" width="37.5" height="30" rx="0"/></clipPath></defs><g clip-path="url(#master_svg0_1_904)"><g transform="matrix(1,0,0,-1,0,61.2890625)"><g><path d="M11.25,57.83203125Q11.3086,59.00393125,12.0703,59.82423125Q12.8906,60.58593125,14.0625,60.64453125L23.4375,60.64453125Q24.6094,60.58593125,25.4297,59.82423125Q26.1914,59.00393125,26.25,57.83203125L26.25,30.64453125L21.5625,30.64453125L21.5625,35.33203125Q21.5039,36.50391125,20.7422,37.32422125Q19.9219,38.08594125,18.75,38.14453125Q17.5781,38.08594125,16.7578,37.32422125Q15.9961,36.50391125,15.9375,35.33203125L15.9375,30.64453125L11.25,30.64453125L11.25,57.83203125ZM2.8125,55.01953125L9.375,55.01953125L2.8125,55.01953125L9.375,55.01953125L9.375,30.64453125L2.8125,30.64453125Q1.64062,30.70312505,0.820312,31.46484325Q0.0585938,32.28515125,0,33.45703125L0,41.89453125L4.6875,41.89453125Q5.56641,41.95313125,5.625,42.83203125Q5.56641,43.71093125,4.6875,43.76953125L0,43.76953125L0,47.51953125L4.6875,47.51953125Q5.56641,47.57813125,5.625,48.45703125Q5.56641,49.33593125,4.6875,49.39453125L0,49.39453125L0,52.20703125Q0.0585938,53.37893125,0.820312,54.19923125Q1.64062,54.96093125,2.8125,55.01953125ZM34.6875,55.01953125Q35.8594,54.96093125,36.6797,54.19923125Q37.4414,53.37893125,37.5,52.20703125L37.5,49.39453125L32.8125,49.39453125Q31.9336,49.33593125,31.875,48.45703125Q31.9336,47.57813125,32.8125,47.51953125L37.5,47.51953125L37.5,43.76953125L32.8125,43.76953125Q31.9336,43.71093125,31.875,42.83203125Q31.9336,41.95313125,32.8125,41.89453125L37.5,41.89453125L37.5,33.45703125Q37.4414,32.28515125,36.6797,31.46484325Q35.8594,30.70312505,34.6875,30.64453125L28.125,30.64453125L28.125,55.01953125L34.6875,55.01953125ZM18.2812,56.89453125Q17.4023,56.83593125,17.3438,55.95703125L17.3438,54.55073125L15.9375,54.55073125Q15.0586,54.49223125,15,53.61333125L15,52.67573125Q15.0586,51.79683125,15.9375,51.73833125L17.3438,51.73833125L17.3438,50.33203125Q17.4023,49.45313125,18.2812,49.39453125L19.2188,49.39453125Q20.0977,49.45313125,20.1562,50.33203125L20.1562,51.73833125L21.5625,51.73833125Q22.4414,51.79683125,22.5,52.67573125L22.5,53.61333125Q22.4414,54.49223125,21.5625,54.55073125L20.1562,54.55073125L20.1562,55.95703125Q20.0977,56.83593125,19.2188,56.89453125L18.2812,56.89453125Z" fill="#1B9AF5" fill-opacity="1" style="mix-blend-mode:passthrough"/></g></g></g></svg>