<svg xmlns="http://www.w3.org/2000/svg" xmlns:xlink="http://www.w3.org/1999/xlink" fill="none" version="1.1" width="16.0625" height="16" viewBox="0 0 16.0625 16"><defs><clipPath id="master_svg0_1_919"><rect x="0" y="0" width="16.0625" height="16" rx="0"/></clipPath></defs><g clip-path="url(#master_svg0_1_919)"><g transform="matrix(1,0,0,-1,0,32.6875)"><g><path d="M10.9063,31.56255Q11.0937,32.03125,11.5,32.21875Q11.9375,32.40625,12.4063,32.31255L15.1563,31.56255Q16,31.24995,16.0625,30.34375Q16.0313,26.43755,14.1563,23.28125Q12.2813,20.125,9.125,18.25Q5.96875,16.375,2.0625,16.34375Q1.15625,16.40625,0.84375,17.25L0.09375,20Q0,20.46875,0.1875,20.90625Q0.375,21.3125,0.84375,21.5L3.84375,22.75Q4.6875,23.03125,5.28125,22.375L6.53125,20.84375Q8.1875,21.625,9.5,22.90625Q10.7813,24.21875,11.5625,25.875L10.03125,27.12495Q9.375,27.71875,9.65625,28.56255L10.9063,31.56255Z" fill="#1B9AF5" fill-opacity="1" style="mix-blend-mode:passthrough"/></g></g></g></svg>