<svg xmlns="http://www.w3.org/2000/svg" xmlns:xlink="http://www.w3.org/1999/xlink" fill="none" version="1.1" width="26.25" height="30" viewBox="0 0 26.25 30"><defs><clipPath id="master_svg0_1_899"><rect x="0" y="0" width="26.25" height="30" rx="0"/></clipPath></defs><g clip-path="url(#master_svg0_1_899)"><g transform="matrix(1,0,0,-1,0,61.2890625)"><g><path d="M13.125,45.64453125Q15.1758,45.64453125,16.875,46.64063125Q18.5742,47.63673125,19.6289,49.39453125Q20.625,51.15233125,20.625,53.14453125Q20.625,55.13673125,19.6289,56.89453125Q18.5742,58.65233125,16.875,59.64843125Q15.1758,60.64453125,13.125,60.64453125Q11.0742,60.64453125,9.375,59.64843125Q7.67578,58.65233125,6.62109,56.89453125Q5.625,55.13673125,5.625,53.14453125Q5.625,51.15233125,6.62109,49.39453125Q7.67578,47.63673125,9.375,46.64063125Q11.0742,45.64453125,13.125,45.64453125ZM7.5,42.42183125Q4.16016,41.36723125,2.10938,38.67187125Q0.0585938,36.03515125,0,32.40234125Q0,31.64062525,0.527344,31.17187525Q0.996094,30.64453125,1.75781,30.64453125L24.4922,30.64453125Q25.2539,30.64453125,25.7227,31.17187525Q26.25,31.64062525,26.25,32.40234125Q26.1914,36.03515125,24.1406,38.67187125Q22.0898,41.36723125,18.75,42.42183125L18.75,39.43359125Q19.9805,39.08203125,20.7422,38.14453125Q21.5625,37.14844125,21.5625,35.80078125L21.5625,33.45703125Q21.5039,32.57812125,20.625,32.51953125L19.6875,32.51953125Q18.8086,32.57812125,18.75,33.45703125Q18.8086,34.33594125,19.6875,34.39453125L19.6875,35.80078125Q19.6875,36.62109125,19.1602,37.14844125Q18.6328,37.67578125,17.8125,37.67578125Q16.9922,37.67578125,16.4648,37.14844125Q15.9375,36.62109125,15.9375,35.80078125L15.9375,34.39453125Q16.8164,34.33594125,16.875,33.45703125Q16.8164,32.57812125,15.9375,32.51953125L15,32.51953125Q14.1211,32.57812125,14.0625,33.45703125L14.0625,35.80078125Q14.0625,37.14844125,14.8828,38.14453125Q15.6445,39.08203125,16.875,39.43359125L16.875,42.77343125Q16.3477,42.83203125,15.8203,42.83203125L10.4297,42.83203125Q9.90234,42.83203125,9.375,42.77343125L9.375,38.96484125Q10.4297,38.61328125,11.0742,37.79297125Q11.7188,36.91406125,11.7188,35.80078125Q11.6602,34.39453125,10.7812,33.45703125Q9.84375,32.57812125,8.4375,32.51953125Q7.03125,32.57812125,6.09375,33.45703125Q5.21484,34.39453125,5.15625,35.80078125Q5.15625,36.91406125,5.80078,37.79297125Q6.44531,38.61328125,7.5,38.96484125L7.5,42.42183125ZM8.4375,34.39453125Q9.72656,34.51172125,9.84375,35.80078125Q9.72656,37.08984125,8.4375,37.20703125Q7.14844,37.08984125,7.03125,35.80078125Q7.14844,34.51172125,8.4375,34.39453125Z" fill="#1B9AF5" fill-opacity="1" style="mix-blend-mode:passthrough"/></g></g></g></svg>