<svg xmlns="http://www.w3.org/2000/svg" xmlns:xlink="http://www.w3.org/1999/xlink" fill="none" version="1.1" width="16" height="16" viewBox="0 0 16 16"><defs><clipPath id="master_svg0_1_924"><rect x="0" y="0" width="16" height="16" rx="0"/></clipPath></defs><g clip-path="url(#master_svg0_1_924)"><g transform="matrix(1,0,0,-1,0,28.6875)"><g><path d="M1.5,26.34375Q0.875,26.31255,0.4375,25.90625Q0.03125,25.46875,0,24.84375Q0.03125,24.09375,0.59375,23.65625L7.40625,18.53125Q8,18.15625,8.59375,18.53125L15.4062,23.65625Q15.9688,24.09375,16,24.84375Q15.9688,25.46875,15.5625,25.90625Q15.125,26.31255,14.5,26.34375L1.5,26.34375ZM0,22.84375L0,16.34375L0,22.84375L0,16.34375Q0.03125,15.5,0.59375,14.9375Q1.15625,14.375,2,14.34375L14,14.34375Q14.8438,14.375,15.4062,14.9375Q15.9688,15.5,16,16.34375L16,22.84375L9.1875,17.75Q8.65625,17.34375,8,17.34375Q7.34375,17.34375,6.8125,17.75L0,22.84375Z" fill="#1B9AF5" fill-opacity="1" style="mix-blend-mode:passthrough"/></g></g></g></svg>